<?xml version="1.0" standalone="no"?>
<!DOCTYPE svg PUBLIC "-//W3C//DTD SVG 20010904//EN"
 "http://www.w3.org/TR/2001/REC-SVG-20010904/DTD/svg10.dtd">
<svg version="1.0" xmlns="http://www.w3.org/2000/svg"
 width="16.000000pt" height="16.000000pt" viewBox="0 0 16.000000 16.000000"
 preserveAspectRatio="xMidYMid meet">
<metadata>
Created by potrace 1.11, written by Peter Selinger 2001-2013
</metadata>
<g transform="translate(0.000000,16.000000) scale(0.003125,-0.003125)"
fill="#000000" stroke="none">
<path d="M0 2100 l0 -1877 2555 0 2555 0 0 1878 0 1877 -85 0 -85 -1 -593
-594 c-327 -326 -598 -593 -602 -593 -5 0 -273 264 -597 588 -323 323 -592
587 -598 587 -6 0 -275 -264 -599 -587 -323 -324 -591 -588 -596 -588 -4 0
-276 267 -603 594 l-594 595 -79 -2 -79 -1 0 -1876z"/>
</g>
</svg>
